<svg width="17" height="5" viewBox="0 0 17 5" fill="none" xmlns="http://www.w3.org/2000/svg">
<path d="M2.24316 4.31543C1.32031 4.31543 0.573242 3.57715 0.573242 2.6543C0.573242 1.73145 1.32031 0.984375 2.24316 0.984375C3.16602 0.984375 3.9043 1.73145 3.9043 2.6543C3.9043 3.57715 3.16602 4.31543 2.24316 4.31543ZM8.77344 4.31543C7.85059 4.31543 7.10352 3.57715 7.10352 2.6543C7.10352 1.73145 7.85059 0.984375 8.77344 0.984375C9.69629 0.984375 10.4346 1.73145 10.4346 2.6543C10.4346 3.57715 9.69629 4.31543 8.77344 4.31543ZM15.3037 4.31543C14.3809 4.31543 13.6338 3.57715 13.6338 2.6543C13.6338 1.73145 14.3809 0.984375 15.3037 0.984375C16.2266 0.984375 16.9736 1.73145 16.9736 2.6543C16.9736 3.57715 16.2266 4.31543 15.3037 4.31543Z" fill="white"/>
</svg>
